<svg width="431" height="512" viewBox="0 0 431 512" fill="none" xmlns="http://www.w3.org/2000/svg">
<path d="M271 512H80C35.8867 512 0 476.113 0 432V161C0 116.887 35.8867 81 80 81H271C315.113 81 351 116.887 351 161V432C351 476.113 315.113 512 271 512ZM80 121C57.9453 121 40 138.945 40 161V432C40 454.055 57.9453 472 80 472H271C293.055 472 311 454.055 311 432V161C311 138.945 293.055 121 271 121H80ZM431 382V80C431 35.8867 395.113 0 351 0H129C117.953 0 109 8.95312 109 20C109 31.0469 117.953 40 129 40H351C373.055 40 391 57.9453 391 80V382C391 393.047 399.953 402 411 402C422.047 402 431 393.047 431 382Z" fill="white"/>
</svg>
